<?xml version="1.0" standalone="no"?><svg xmlns="http://www.w3.org/2000/svg" viewBox="0 0 1440 320"><path fill="#3E92CC" fill-opacity="1" d="M0,0L30,16C60,32,120,64,180,80C240,96,300,96,360,101.3C420,107,480,117,540,128C600,139,660,149,720,154.7C780,160,840,160,900,176C960,192,1020,224,1080,218.7C1140,213,1200,171,1260,154.7C1320,139,1380,149,1410,154.7L1440,160L1440,320L1410,320C1380,320,1320,320,1260,320C1200,320,1140,320,1080,320C1020,320,960,320,900,320C840,320,780,320,720,320C660,320,600,320,540,320C480,320,420,320,360,320C300,320,240,320,180,320C120,320,60,320,30,320L0,320Z"></path></svg>